# xmcd
#
# Track frame offsets: 
#        187
#        12692
#        26005
#        44390
#        58590
#        72102
#        89275
#        112602
#        127985
#        142822
#
# Disc length: 2122 seconds
#
# Revision: 2
# Processed by: cddbd v1.4PL0 Copyright (c) Steve Scherf et al.
# Submitted via: ExactAudioCopy v0.90a11
#
DISCID=7c08480a
DTITLE=The Judds - The Judds Collection (1983 - 1990) - Disc 3
DYEAR=1900
DGENRE=
TTITLE0=My Baby's Gone
TTITLE1=Working In The Coal Mine
TTITLE2=Grandpa (Tell Me 'Bout The Good Old Days)
TTITLE3=Cow Cow Boogie
TTITLE4=Rockin' With The Rhythm Of The Rain
TTITLE5=River Roll On
TTITLE6=Give A Little Love
TTITLE7=Love Is Alive
TTITLE8=Why Not Me
TTITLE9=When King Jesus Calls His Children Home
EXTD=
EXTT0=
EXTT1=
EXTT2=
EXTT3=
EXTT4=
EXTT5=
EXTT6=
EXTT7=
EXTT8=
EXTT9=
PLAYORDER=
